<svg width="723" height="345" viewBox="0 0 723 345" fill="none" xmlns="http://www.w3.org/2000/svg">
<path d="M628.392 126.978H473.338C466.196 139.24 462.078 153.027 461.324 167.197C460.57 181.367 463.201 195.513 469 208.464H632.676C638.504 195.522 641.156 181.375 640.411 167.202C639.666 153.028 635.545 139.237 628.392 126.978" fill="#FF8C00"/>
<path d="M605.405 243.072C594.653 251.3 582.179 256.987 568.917 259.708C555.655 262.429 541.949 262.113 528.826 258.783C515.704 255.454 503.505 249.197 493.144 240.483C482.783 231.769 474.529 220.822 469 208.464H383.668C385.975 219.064 389.294 229.418 393.578 239.384C419.804 300.321 480.424 343.105 550.865 343.105C574.815 343.086 598.496 338.05 620.381 328.32C642.266 318.591 661.87 304.383 677.929 286.615C680.021 284.299 682.021 281.917 683.973 279.505L605.405 243.072Z" fill="#FF8C00"/>
<path d="M473.337 126.978H385.745C381.753 141.59 379.724 156.668 379.711 171.816V172.08C379.726 184.314 381.053 196.512 383.669 208.464H468.999C463.199 195.513 460.567 181.367 461.321 167.197C462.076 153.026 466.195 139.239 473.337 126.978" fill="#FF4B28"/>
<path d="M640.533 171.948C640.512 184.538 637.834 196.981 632.675 208.466H718.056C723.97 181.536 723.26 153.572 715.986 126.977H628.391C636.355 140.625 640.545 156.146 640.533 171.948Z" fill="#FF4B28"/>
<path d="M171.947 82.2775C195.705 82.3205 218.478 91.7727 235.283 108.566C252.087 125.359 261.556 148.125 261.616 171.882V26.2373C234.746 9.59222 203.761 0.781305 172.153 0.797248H171.741C77.4592 0.909248 0.790894 77.6415 0.790894 171.948C0.790894 266.324 77.5712 343.104 171.947 343.104C203.626 343.156 234.687 334.342 261.616 317.658V172.014C261.603 189.746 256.332 207.076 246.471 221.813C236.61 236.55 222.601 248.033 206.215 254.81C189.829 261.586 171.801 263.352 154.411 259.885C137.022 256.417 121.05 247.872 108.517 235.329C95.983 222.785 87.4495 206.808 83.9951 189.415C80.5408 172.023 82.3206 153.997 89.1096 137.616C95.8985 121.235 107.392 107.234 122.137 97.3844C136.881 87.5345 154.215 82.2773 171.947 82.2775" fill="#FF8C00"/>
<path d="M261.616 26.2383C286.497 41.5451 307.046 62.9641 321.309 88.4572C335.572 113.95 343.074 142.669 343.101 171.881V0.798279H261.616V26.2383Z" fill="#FF8C00"/>
<path d="M261.616 317.659V344.373H343.101V172.014C343.074 201.226 335.572 229.945 321.309 255.439C307.046 280.932 286.497 302.351 261.616 317.658" fill="#FF8C00"/>
<path d="M261.616 26.2383V317.659C286.497 302.352 307.046 280.932 321.309 255.438C335.572 229.945 343.074 201.225 343.101 172.013V171.881C343.074 142.669 335.572 113.95 321.309 88.4572C307.046 62.9641 286.497 41.5451 261.616 26.2383" fill="#FF4B28"/>
<path d="M704.218 96.0551C676.194 39.659 617.995 0.790863 550.865 0.790863C483.733 0.790863 425.537 39.659 397.513 96.0551C392.593 105.955 388.651 116.311 385.745 126.977H473.337C480.656 114.419 490.897 103.811 503.191 96.0551C517.463 87.054 533.991 82.2771 550.864 82.2771C567.737 82.2771 584.266 87.054 598.537 96.0551C610.832 103.81 621.073 114.418 628.391 126.977H715.984C713.077 116.312 709.136 105.955 704.218 96.0551" fill="#FF8C00"/>
</svg>
