<svg id="Layer_1" data-name="Layer 1" xmlns="http://www.w3.org/2000/svg" viewBox="0 0 1920 1080"><defs><style>.cls-1{stroke:#000;}.cls-1,.cls-2,.cls-3,.cls-4{stroke-miterlimit:10;}.cls-2{fill:none;}.cls-2,.cls-3{stroke:lime;}.cls-2,.cls-3,.cls-4{stroke-width:9px;}.cls-3{fill:lime;}.cls-4{fill:red;stroke:red;}</style></defs><title>object-depth</title><path d="M134.74,590.12c34.27-38.47,87.12-52.32,137.18-50.79,61.22,1.88,119.17,25.33,177.19,42.48,57,16.83,118,28.39,176.39,11.6C679,578,726.5,545.1,783.44,542.56,885.76,538,975.8,605,1077.75,604.63c25.89-.09,50.92-5.44,75.09-14.59,25.74-9.74,50.2-22.56,76-32.08,26.67-9.83,53.91-14.49,82.31-11.35,29.79,3.3,58.45,13.29,86.67,22.89,27.2,9.26,54.43,18.14,82.83,23a385.07,385.07,0,0,0,79,5.23,391.32,391.32,0,0,0,155.49-38.52,377.43,377.43,0,0,0,35.28-19.54c5.45-3.39.44-12-5-8.63a376.87,376.87,0,0,1-156.23,54.46c-56.07,6.4-111.51-.33-165.07-17.7-54.13-17.56-109.24-40.94-167.18-28.58-53.26,11.36-98.69,46.06-153.06,53.65-51,7.13-101.89-7.86-150-23.44s-96.42-33.56-147.28-36.63a210.53,210.53,0,0,0-75.48,9.08c-26.48,8.24-51.38,20.63-77.06,30.94-28,11.22-56.49,18.61-86.8,19-31.63.36-62.95-5.43-93.44-13.42-59.31-15.53-116.44-39.78-177.7-47.12-48.48-5.81-101.37.68-142.44,28.85a143.59,143.59,0,0,0-26.06,23c-4.27,4.79,2.77,11.88,7.07,7.07Z"/><polygon class="cls-1" points="1337.77 155.68 1338.34 289.42 1216.04 211.08 1337.77 155.68"/><rect class="cls-1" x="1304.16" y="65.93" width="73.71" height="169.38" transform="translate(293.05 -699.55) rotate(32.64)"/><line class="cls-2" x1="1276.9" y1="250.68" x2="1057.58" y2="593.09"/><line class="cls-3" x1="1273.66" y1="251.99" x2="472.76" y2="576.4"/><line class="cls-2" x1="1278.8" y1="254.34" x2="1286.33" y2="534.22"/><polygon class="cls-4" points="1294.08 550.8 1288.43 546.31 1286.28 553.2 1284.35 546.25 1278.56 550.56 1281.09 543.8 1273.87 543.88 1279.89 539.9 1274 535.73 1281.21 536.04 1278.89 529.2 1284.55 533.69 1286.69 526.8 1288.63 533.75 1294.41 529.44 1291.89 536.2 1299.11 536.12 1293.09 540.1 1298.98 544.27 1291.77 543.96 1294.08 550.8"/><polygon class="cls-4" points="1060.88 610.58 1055.23 606.09 1053.08 612.98 1051.15 606.03 1045.36 610.34 1047.89 603.58 1040.67 603.67 1046.68 599.68 1040.79 595.51 1048.01 595.82 1045.69 588.98 1051.34 593.47 1053.49 586.58 1055.42 593.53 1061.21 589.22 1058.69 595.98 1065.91 595.9 1059.89 599.88 1065.78 604.06 1058.57 603.74 1060.88 610.58"/><polygon class="cls-4" points="471.43 590.81 465.78 586.32 463.63 593.21 461.7 586.26 455.91 590.57 458.43 583.81 451.21 583.89 457.23 579.91 451.34 575.74 458.55 576.05 456.24 569.21 461.89 573.7 464.04 566.81 465.97 573.76 471.76 569.45 469.23 576.21 476.45 576.12 470.44 580.11 476.33 584.28 469.11 583.97 471.43 590.81"/></svg>