<svg id="Layer_1" data-name="Layer 1" xmlns="http://www.w3.org/2000/svg" viewBox="0 0 1920 1080"><defs><style>.cls-1,.cls-3{stroke:#000;}.cls-1,.cls-2,.cls-3,.cls-4{stroke-miterlimit:10;}.cls-2{fill:none;stroke:lime;}.cls-2,.cls-3,.cls-4{stroke-width:9px;}.cls-4{fill:red;stroke:red;}</style></defs><title>scene-depth</title><path d="M134.79,563.71c34.28-38.47,87.12-52.32,137.18-50.78,61.22,1.87,119.17,25.33,177.2,42.47,57,16.83,118,28.4,176.38,11.61,53.49-15.38,101-48.31,158-50.85,102.32-4.56,192.35,62.4,294.3,62.06,25.9-.08,50.92-5.44,75.09-14.59,25.74-9.74,50.21-22.55,76-32.08,26.67-9.83,53.91-14.49,82.31-11.35,29.79,3.3,58.45,13.29,86.67,22.9,27.21,9.26,54.43,18.14,82.83,23a385.78,385.78,0,0,0,79,5.24,391.58,391.58,0,0,0,155.5-38.53,377.59,377.59,0,0,0,35.28-19.53c5.44-3.4.43-12.05-5-8.64a376.69,376.69,0,0,1-156.22,54.46c-56.08,6.4-111.52-.33-165.07-17.69C1370,523.82,1314.94,500.43,1257,512.79c-53.26,11.36-98.69,46.06-153.06,53.65-51,7.13-101.89-7.86-150-23.43s-96.41-33.57-147.28-36.63a210.53,210.53,0,0,0-75.48,9.08c-26.48,8.24-51.38,20.62-77.06,30.93-28,11.23-56.48,18.62-86.79,19-31.64.37-62.95-5.42-93.45-13.41-59.31-15.54-116.43-39.79-177.7-47.13-48.48-5.81-101.36.69-142.44,28.86a143.54,143.54,0,0,0-26.06,23c-4.27,4.79,2.78,11.89,7.07,7.07Z"/><polygon class="cls-1" points="1337.82 129.27 1338.39 263.01 1216.09 184.67 1337.82 129.27"/><rect class="cls-1" x="1304.21" y="39.52" width="73.71" height="169.38" transform="translate(278.82 -703.75) rotate(32.64)"/><line class="cls-2" x1="1276.96" y1="224.27" x2="942.14" y2="747"/><line class="cls-2" x1="1278.86" y1="227.93" x2="1291.96" y2="714.97"/><rect class="cls-3" x="131.25" y="839.85" width="1616.74" height="105.01"/><polygon class="cls-3" points="389.61 896.16 228.25 845.32 352.96 731 389.61 896.16"/><polygon class="cls-3" points="918.69 843.8 845.44 937.59 726.45 938.8 651.31 846.52 676.61 730.24 783.3 677.52 891.03 728.06 918.69 843.8"/><ellipse class="cls-3" cx="960" cy="807" rx="119" ry="60"/><rect class="cls-3" x="1039.89" y="667.53" width="228" height="178" transform="translate(-196.98 1037.51) rotate(-45)"/><rect class="cls-3" x="1203" y="719" width="450" height="148"/><polygon class="cls-4" points="1297.42 732.02 1291.77 727.53 1289.62 734.42 1287.68 727.47 1281.9 731.78 1284.42 725.02 1277.2 725.11 1283.22 721.12 1277.33 716.95 1284.54 717.26 1282.23 710.42 1287.88 714.91 1290.03 708.02 1291.96 714.97 1297.75 710.66 1295.22 717.42 1302.44 717.34 1296.42 721.32 1302.32 725.5 1295.1 725.18 1297.42 732.02"/><polygon class="cls-4" points="947.22 757.8 941.57 753.31 939.42 760.2 937.49 753.25 931.7 757.56 934.22 750.8 927 750.88 933.02 746.9 927.13 742.73 934.34 743.04 932.03 736.2 937.68 740.69 939.83 733.8 941.76 740.75 947.55 736.44 945.02 743.2 952.24 743.12 946.22 747.1 952.12 751.27 944.9 750.96 947.22 757.8"/></svg>